<svg width="1197" height="146" viewBox="0 0 1197 146" fill="none" xmlns="http://www.w3.org/2000/svg">
<mask id="path-1-outside-1_87_1169" maskUnits="userSpaceOnUse" x="-165.5" y="0" width="1362" height="146" fill="black">
<rect fill="white" x="-165.5" width="1362" height="146"/>
<path d="M-27.2715 1.44482V25.5586H-135.458V63.3586H-46.8232V85.9517H-135.458V142H-164.351V1.44482H-27.2715ZM125.712 79.869V1.44482H154.605V82.9103C154.605 92.1793 153.23 100.29 150.478 107.241C147.871 114.193 144.105 120.059 139.181 124.838C134.257 129.617 128.464 133.528 121.802 136.569C115.285 139.466 108.116 141.566 100.295 142.869C92.6192 144.172 84.5088 144.824 75.964 144.824C67.1295 144.824 58.7295 144.172 50.764 142.869C42.7985 141.566 35.4847 139.466 28.8226 136.569C22.3054 133.528 16.6571 129.617 11.8778 124.838C7.09849 120.059 3.33297 114.193 0.581246 107.241C-2.02565 100.29 -3.3291 92.1793 -3.3291 82.9103V1.44482H25.564V79.869C25.564 90.8759 27.7364 99.2759 32.0812 105.069C36.4261 110.717 42.364 114.628 49.895 116.8C57.5709 118.828 66.2606 119.841 75.964 119.841C85.3778 119.841 93.7778 118.828 101.164 116.8C108.695 114.628 114.633 110.717 118.978 105.069C123.467 99.2759 125.712 90.8759 125.712 79.869ZM330.54 113.324L321.416 117.017V1.44482H350.309V142H321.416L207.799 30.9896L216.923 27.2966V142H188.03V1.44482H216.923L330.54 113.324ZM464.224 1.44482C480.01 1.44482 493.189 3.32758 503.762 7.09309C514.334 10.8586 522.734 16 528.962 22.5172C535.334 28.8896 539.824 36.2759 542.431 44.6759C545.182 53.0759 546.558 61.9103 546.558 71.1793C546.558 80.4483 545.037 89.3552 541.996 97.9C539.099 106.445 534.393 114.048 527.875 120.71C521.503 127.228 513.03 132.441 502.458 136.352C492.03 140.117 479.286 142 464.224 142H383.844V1.44482H464.224ZM412.737 117.234H463.572C473.999 117.234 482.617 116.003 489.424 113.541C496.375 110.934 501.879 107.459 505.934 103.114C509.989 98.769 512.886 93.8448 514.624 88.3414C516.362 82.8379 517.231 77.1172 517.231 71.1793C517.231 65.2414 516.362 59.5931 514.624 54.2345C512.886 48.8759 509.989 44.0965 505.934 39.8965C501.879 35.6965 496.375 32.3655 489.424 29.9034C482.617 27.4414 473.999 26.2103 463.572 26.2103H412.737V117.234ZM589.72 111.369V87.2552H682.699V111.369H589.72ZM554.744 142L620.785 1.44482H652.068L718.761 142H687.261L629.475 15.3483H643.378L586.026 142H554.744ZM739.195 142V1.44482H820.226C839.054 1.44482 853.319 4.63103 863.023 11.0034C872.871 17.231 877.795 26.5724 877.795 39.0276C877.795 46.9931 875.84 53.2931 871.93 57.9276C868.019 62.4172 862.443 65.7483 855.202 67.9207C848.105 70.0931 839.705 71.469 830.002 72.0483L830.871 70.5276C837.968 70.6724 844.63 71.1793 850.857 72.0483C857.23 72.9172 862.805 74.5103 867.585 76.8276C872.364 79.1448 876.13 82.4034 878.881 86.6034C881.633 90.6586 883.009 96.0172 883.009 102.679C883.009 111.369 880.692 118.61 876.057 124.403C871.423 130.052 864.978 134.324 856.723 137.221C848.468 140.117 838.909 141.71 828.047 142H739.195ZM768.088 118.103H825.005C834.13 118.103 841.154 116.655 846.078 113.759C851.002 110.717 853.464 105.938 853.464 99.4207C853.464 94.6414 852.016 91.1655 849.119 88.9931C846.223 86.8207 842.385 85.5172 837.605 85.0828C832.826 84.5034 827.685 84.2138 822.181 84.2138H768.088V118.103ZM768.088 60.969H819.14C828.264 60.969 835.288 59.6655 840.212 57.0586C845.137 54.3069 847.599 49.6724 847.599 43.1552C847.599 36.6379 845.137 32.0759 840.212 29.469C835.288 26.7172 828.771 25.3414 820.661 25.3414H768.088V60.969ZM937.596 1.44482V117.886H1031.01V142H908.703V1.44482H937.596ZM1086.74 83.3448V117.886H1195.14V142H1057.84V1.44482H1194.92V25.5586H1086.74V60.5345H1175.37V83.3448H1086.74Z"/>
</mask>
<path d="M-27.2715 1.44482H-26.2715V0.444824H-27.2715V1.44482ZM-27.2715 25.5586V26.5586H-26.2715V25.5586H-27.2715ZM-135.458 25.5586V24.5586H-136.458V25.5586H-135.458ZM-135.458 63.3586H-136.458V64.3586H-135.458V63.3586ZM-46.8232 63.3586H-45.8232V62.3586H-46.8232V63.3586ZM-46.8232 85.9517V86.9517H-45.8232V85.9517H-46.8232ZM-135.458 85.9517V84.9517H-136.458V85.9517H-135.458ZM-135.458 142V143H-134.458V142H-135.458ZM-164.351 142H-165.351V143H-164.351V142ZM-164.351 1.44482V0.444824H-165.351V1.44482H-164.351ZM-28.2715 1.44482V25.5586H-26.2715V1.44482H-28.2715ZM-27.2715 24.5586H-135.458V26.5586H-27.2715V24.5586ZM-136.458 25.5586V63.3586H-134.458V25.5586H-136.458ZM-135.458 64.3586H-46.8232V62.3586H-135.458V64.3586ZM-47.8232 63.3586V85.9517H-45.8232V63.3586H-47.8232ZM-46.8232 84.9517H-135.458V86.9517H-46.8232V84.9517ZM-136.458 85.9517V142H-134.458V85.9517H-136.458ZM-135.458 141H-164.351V143H-135.458V141ZM-163.351 142V1.44482H-165.351V142H-163.351ZM-164.351 2.44482H-27.2715V0.444824H-164.351V2.44482ZM125.712 1.44482V0.444824H124.712V1.44482H125.712ZM154.605 1.44482H155.605V0.444824H154.605V1.44482ZM150.478 107.241L149.548 106.873L149.545 106.882L149.541 106.89L150.478 107.241ZM121.802 136.569L122.208 137.483L122.217 137.479L121.802 136.569ZM100.295 142.869L100.131 141.883L100.128 141.883L100.295 142.869ZM50.764 142.869L50.6025 143.856L50.764 142.869ZM28.8226 136.569L28.3997 137.475L28.4117 137.481L28.4239 137.486L28.8226 136.569ZM11.8778 124.838L11.1707 125.545L11.8778 124.838ZM0.581253 107.241L-0.355087 107.592L-0.351898 107.601L-0.348557 107.609L0.581253 107.241ZM-3.3291 1.44482V0.444824H-4.3291V1.44482H-3.3291ZM25.564 1.44482H26.564V0.444824H25.564V1.44482ZM32.0813 105.069L31.2812 105.669L31.2886 105.679L32.0813 105.069ZM49.8951 116.8L49.6179 117.761L49.6287 117.764L49.6396 117.767L49.8951 116.8ZM101.164 116.8L101.429 117.764L101.441 117.761L101.164 116.8ZM118.978 105.069L118.187 104.456L118.185 104.459L118.978 105.069ZM126.712 79.869V1.44482H124.712V79.869H126.712ZM125.712 2.44482H154.605V0.444824H125.712V2.44482ZM153.605 1.44482V82.9103H155.605V1.44482H153.605ZM153.605 82.9103C153.605 92.0825 152.244 100.063 149.548 106.873L151.408 107.609C154.215 100.516 155.605 92.2761 155.605 82.9103H153.605ZM149.541 106.89C146.982 113.715 143.294 119.452 138.485 124.12L139.878 125.556C144.916 120.665 148.76 114.671 151.414 107.592L149.541 106.89ZM138.485 124.12C133.648 128.815 127.952 132.662 121.387 135.659L122.217 137.479C128.976 134.393 134.866 130.42 139.878 125.556L138.485 124.12ZM121.396 135.655C114.964 138.514 107.877 140.591 100.131 141.883L100.459 143.855C108.354 142.54 115.606 140.417 122.208 137.483L121.396 135.655ZM100.128 141.883C92.5121 143.176 84.4581 143.824 75.964 143.824V145.824C84.5596 145.824 92.7262 145.169 100.462 143.855L100.128 141.883ZM75.964 143.824C67.1786 143.824 58.8329 143.176 50.9255 141.882L50.6025 143.856C58.6262 145.169 67.0804 145.824 75.964 145.824V143.824ZM50.9255 141.882C43.0327 140.591 35.7997 138.512 29.2214 135.652L28.4239 137.486C35.1697 140.419 42.5643 142.54 50.6025 143.856L50.9255 141.882ZM29.2455 135.663C22.8271 132.668 17.2766 128.823 12.5849 124.131L11.1707 125.545C16.0376 130.412 21.7837 134.388 28.3997 137.475L29.2455 135.663ZM12.5849 124.131C7.91202 119.458 4.21785 113.712 1.51105 106.873L-0.348557 107.609C2.44809 114.675 6.28496 120.659 11.1707 125.545L12.5849 124.131ZM1.51758 106.89C-1.03821 100.075 -2.3291 92.088 -2.3291 82.9103H-4.3291C-4.3291 92.2706 -3.01309 100.504 -0.355087 107.592L1.51758 106.89ZM-2.3291 82.9103V1.44482H-4.3291V82.9103H-2.3291ZM-3.3291 2.44482H25.564V0.444824H-3.3291V2.44482ZM24.564 1.44482V79.869H26.564V1.44482H24.564ZM24.564 79.869C24.564 90.9859 26.7547 99.6336 31.2812 105.669L32.8812 104.469C28.7181 98.9182 26.564 90.7659 26.564 79.869H24.564ZM31.2886 105.679C35.7765 111.513 41.9035 115.536 49.6179 117.761L50.1722 115.839C42.8245 113.72 37.0757 109.922 32.8739 104.459L31.2886 105.679ZM49.6396 117.767C57.4149 119.821 66.1927 120.841 75.964 120.841V118.841C66.3284 118.841 57.7269 117.835 50.1504 115.833L49.6396 117.767ZM75.964 120.841C85.4477 120.841 93.9392 119.82 101.429 117.764L100.899 115.836C93.6164 117.835 85.308 118.841 75.964 118.841V120.841ZM101.441 117.761C109.156 115.536 115.283 111.513 119.77 105.679L118.185 104.459C113.983 109.922 108.235 113.72 100.887 115.839L101.441 117.761ZM119.768 105.682C124.447 99.6445 126.712 90.9915 126.712 79.869H124.712C124.712 90.7602 122.488 98.9072 118.187 104.456L119.768 105.682ZM330.54 113.324L330.916 114.251L332.327 113.68L331.242 112.612L330.54 113.324ZM321.416 117.017H320.416V118.501L321.791 117.944L321.416 117.017ZM321.416 1.44482V0.444824H320.416V1.44482H321.416ZM350.309 1.44482H351.309V0.444824H350.309V1.44482ZM350.309 142V143H351.309V142H350.309ZM321.416 142L320.717 142.715L321.009 143H321.416V142ZM207.799 30.9896L207.424 30.0627L206.007 30.6364L207.1 31.7049L207.799 30.9896ZM216.923 27.2966H217.923V25.813L216.548 26.3696L216.923 27.2966ZM216.923 142V143H217.923V142H216.923ZM188.03 142H187.03V143H188.03V142ZM188.03 1.44482V0.444824H187.03V1.44482H188.03ZM216.923 1.44482L217.625 0.732288L217.333 0.444824H216.923V1.44482ZM330.165 112.397L321.041 116.09L321.791 117.944L330.916 114.251L330.165 112.397ZM322.416 117.017V1.44482H320.416V117.017H322.416ZM321.416 2.44482H350.309V0.444824H321.416V2.44482ZM349.309 1.44482V142H351.309V1.44482H349.309ZM350.309 141H321.416V143H350.309V141ZM322.115 141.285L208.498 30.2744L207.1 31.7049L320.717 142.715L322.115 141.285ZM208.174 31.9166L217.298 28.2235L216.548 26.3696L207.424 30.0627L208.174 31.9166ZM215.923 27.2966V142H217.923V27.2966H215.923ZM216.923 141H188.03V143H216.923V141ZM189.03 142V1.44482H187.03V142H189.03ZM188.03 2.44482H216.923V0.444824H188.03V2.44482ZM216.221 2.15736L329.839 114.037L331.242 112.612L217.625 0.732288L216.221 2.15736ZM503.762 7.09309L504.097 6.15106L503.762 7.09309ZM528.962 22.5172L528.239 23.2081L528.246 23.2163L528.254 23.2243L528.962 22.5172ZM542.43 44.6759L541.475 44.9723L541.478 44.9797L541.48 44.9872L542.43 44.6759ZM541.996 97.9L541.054 97.5647L541.051 97.5718L541.049 97.579L541.996 97.9ZM527.875 120.71L527.16 120.011L527.16 120.011L527.875 120.71ZM502.458 136.352L502.798 137.292L502.805 137.29L502.458 136.352ZM383.844 142H382.844V143H383.844V142ZM383.844 1.44482V0.444824H382.844V1.44482H383.844ZM412.737 117.234H411.737V118.234H412.737V117.234ZM489.424 113.541L489.764 114.482L489.775 114.478L489.424 113.541ZM505.934 103.114L506.665 103.796L505.934 103.114ZM514.624 88.3414L513.67 88.0403L514.624 88.3414ZM514.624 54.2345L513.672 54.543L514.624 54.2345ZM505.934 39.8965L506.653 39.202L505.934 39.8965ZM489.424 29.9034L489.083 30.8438L489.09 30.8461L489.424 29.9034ZM412.737 26.2103V25.2103H411.737V26.2103H412.737ZM464.224 2.44482C479.938 2.44482 492.995 4.3201 503.426 8.03513L504.097 6.15106C493.383 2.33506 480.081 0.444824 464.224 0.444824V2.44482ZM503.426 8.03513C513.887 11.7608 522.142 16.8279 528.239 23.2081L529.685 21.8264C523.326 15.1721 514.781 9.95638 504.097 6.15106L503.426 8.03513ZM528.254 23.2243C534.515 29.4849 538.918 36.7312 541.475 44.9723L543.386 44.3795C540.729 35.8205 536.153 28.2944 529.669 21.8101L528.254 23.2243ZM541.48 44.9872C544.197 53.2819 545.558 62.0109 545.558 71.1793H547.558C547.558 61.8098 546.167 52.8698 543.381 44.3645L541.48 44.9872ZM545.558 71.1793C545.558 80.3366 544.056 89.1299 541.054 97.5647L542.938 98.2353C546.019 89.5805 547.558 80.56 547.558 71.1793H545.558ZM541.049 97.579C538.202 105.977 533.577 113.452 527.16 120.011L528.59 121.41C535.209 114.644 539.997 106.912 542.943 98.221L541.049 97.579ZM527.16 120.011C520.913 126.401 512.577 131.543 502.111 135.414L502.805 137.29C513.484 133.34 522.093 128.055 528.59 121.409L527.16 120.011ZM502.118 135.411C491.831 139.126 479.209 141 464.224 141V143C479.363 143 492.23 141.108 502.798 137.292L502.118 135.411ZM464.224 141H383.844V143H464.224V141ZM384.844 142V1.44482H382.844V142H384.844ZM383.844 2.44482H464.224V0.444824H383.844V2.44482ZM412.737 118.234H463.572V116.234H412.737V118.234ZM463.572 118.234C474.069 118.234 482.811 116.997 489.764 114.482L489.083 112.601C482.422 115.01 473.93 116.234 463.572 116.234V118.234ZM489.775 114.478C496.836 111.83 502.482 108.278 506.665 103.796L505.203 102.431C501.276 106.639 495.915 110.039 489.072 112.605L489.775 114.478ZM506.665 103.796C510.819 99.3457 513.793 94.2923 515.577 88.6425L513.67 88.0403C511.978 93.3974 509.16 98.1922 505.203 102.431L506.665 103.796ZM515.577 88.6425C517.347 83.0388 518.231 77.2164 518.231 71.1793H516.231C516.231 77.0181 515.376 82.637 513.67 88.0403L515.577 88.6425ZM518.231 71.1793C518.231 65.1423 517.347 59.3895 515.575 53.926L513.672 54.543C515.376 59.7967 516.231 65.3404 516.231 71.1793H518.231ZM515.575 53.926C513.788 48.4174 510.81 43.5073 506.653 39.202L505.215 40.5911C509.168 44.6858 511.983 49.3343 513.672 54.543L515.575 53.926ZM506.653 39.202C502.466 34.8651 496.818 31.4613 489.757 28.9608L489.09 30.8461C495.933 33.2697 501.292 36.528 505.215 40.5911L506.653 39.202ZM489.764 28.9631C482.811 26.4483 474.069 25.2103 463.572 25.2103V27.2103C473.93 27.2103 482.422 28.4344 489.083 30.8438L489.764 28.9631ZM463.572 25.2103H412.737V27.2103H463.572V25.2103ZM411.737 26.2103V117.234H413.737V26.2103H411.737ZM589.719 111.369H588.719V112.369H589.719V111.369ZM589.719 87.2552V86.2552H588.719V87.2552H589.719ZM682.699 87.2552H683.699V86.2552H682.699V87.2552ZM682.699 111.369V112.369H683.699V111.369H682.699ZM554.744 142L553.839 141.575L553.169 143H554.744V142ZM620.785 1.44482V0.444824H620.15L619.88 1.01957L620.785 1.44482ZM652.068 1.44482L652.971 1.01614L652.7 0.444824H652.068V1.44482ZM718.761 142V143H720.342L719.664 141.571L718.761 142ZM687.261 142L686.351 142.415L686.618 143H687.261V142ZM629.475 15.3483V14.3483H627.919L628.565 15.7634L629.475 15.3483ZM643.378 15.3483L644.289 15.7608L644.929 14.3483H643.378V15.3483ZM586.026 142V143H586.671L586.937 142.413L586.026 142ZM590.719 111.369V87.2552H588.719V111.369H590.719ZM589.719 88.2552H682.699V86.2552H589.719V88.2552ZM681.699 87.2552V111.369H683.699V87.2552H681.699ZM682.699 110.369H589.719V112.369H682.699V110.369ZM555.649 142.425L621.69 1.87008L619.88 1.01957L553.839 141.575L555.649 142.425ZM620.785 2.44482H652.068V0.444824H620.785V2.44482ZM651.164 1.87351L717.857 142.429L719.664 141.571L652.971 1.01614L651.164 1.87351ZM718.761 141H687.261V143H718.761V141ZM688.171 141.585L630.384 14.9332L628.565 15.7634L686.351 142.415L688.171 141.585ZM629.475 16.3483H643.378V14.3483H629.475V16.3483ZM642.467 14.9358L585.115 141.587L586.937 142.413L644.289 15.7608L642.467 14.9358ZM586.026 141H554.744V143H586.026V141ZM739.195 142H738.195V143H739.195V142ZM739.195 1.44482V0.444824H738.195V1.44482H739.195ZM863.023 11.0034L862.474 11.8393L862.481 11.844L862.488 11.8486L863.023 11.0034ZM871.93 57.9276L872.684 58.5844L872.689 58.5784L872.694 58.5724L871.93 57.9276ZM855.202 67.9207L854.915 66.9628L854.909 66.9645L855.202 67.9207ZM830.002 72.0483L829.134 71.5521L828.217 73.1566L830.062 73.0465L830.002 72.0483ZM830.871 70.5276L830.891 69.5278L830.297 69.5157L830.003 70.0314L830.871 70.5276ZM850.857 72.0483L850.719 73.0387L850.722 73.0391L850.857 72.0483ZM878.881 86.6034L878.045 87.1515L878.049 87.1582L878.054 87.1649L878.881 86.6034ZM876.057 124.403L876.83 125.038L876.838 125.028L876.057 124.403ZM856.723 137.221L856.392 136.277L856.723 137.221ZM828.047 142V143H828.06L828.073 143L828.047 142ZM768.088 118.103H767.088V119.103H768.088V118.103ZM846.078 113.759L846.585 114.621L846.594 114.615L846.603 114.609L846.078 113.759ZM849.119 88.9931L848.519 89.7931L849.119 88.9931ZM837.605 85.0828L837.485 86.0755L837.5 86.0773L837.515 86.0786L837.605 85.0828ZM768.088 84.2138V83.2138H767.088V84.2138H768.088ZM768.088 60.969H767.088V61.969H768.088V60.969ZM840.212 57.0586L840.68 57.9424L840.69 57.9371L840.7 57.9316L840.212 57.0586ZM840.212 29.469L839.725 30.3419L839.734 30.3474L839.745 30.3528L840.212 29.469ZM768.088 25.3414V24.3414H767.088V25.3414H768.088ZM740.195 142V1.44482H738.195V142H740.195ZM739.195 2.44482H820.226V0.444824H739.195V2.44482ZM820.226 2.44482C838.969 2.44482 853.006 5.62162 862.474 11.8393L863.572 10.1676C853.633 3.64044 839.139 0.444824 820.226 0.444824V2.44482ZM862.488 11.8486C872.023 17.8783 876.795 26.8869 876.795 39.0276H878.795C878.795 26.2579 873.719 16.5838 863.557 10.1582L862.488 11.8486ZM876.795 39.0276C876.795 46.8321 874.881 52.8787 871.165 57.2827L872.694 58.5724C876.799 53.7075 878.795 47.1541 878.795 39.0276H876.795ZM871.176 57.2708C867.419 61.5842 862.024 64.8302 854.915 66.9629L855.489 68.8785C862.863 66.6663 868.62 63.2502 872.684 58.5844L871.176 57.2708ZM854.909 66.9645C847.908 69.1078 839.59 70.4741 829.942 71.05L830.062 73.0465C839.821 72.4638 848.303 71.0784 855.495 68.8769L854.909 66.9645ZM830.87 72.5444L831.739 71.0237L830.003 70.0314L829.134 71.5521L830.87 72.5444ZM830.851 71.5274C837.913 71.6715 844.535 72.1758 850.719 73.0387L850.995 71.0579C844.724 70.1828 838.022 69.6733 830.891 69.5278L830.851 71.5274ZM850.722 73.0391C857.011 73.8967 862.482 75.4647 867.149 77.7274L868.021 75.9278C863.129 73.556 857.448 71.9378 850.992 71.0574L850.722 73.0391ZM867.149 77.7274C871.775 79.9705 875.398 83.1116 878.045 87.1515L879.718 86.0554C876.861 81.6953 872.953 78.3192 868.021 75.9278L867.149 77.7274ZM878.054 87.1649C880.659 91.0046 882.009 96.1473 882.009 102.679H884.009C884.009 95.8872 882.607 90.3127 879.709 86.0419L878.054 87.1649ZM882.009 102.679C882.009 111.183 879.745 118.192 875.276 123.779L876.838 125.028C881.638 119.028 884.009 111.555 884.009 102.679H882.009ZM875.284 123.769C870.787 129.25 864.508 133.429 856.392 136.277L857.054 138.164C865.448 135.219 872.058 130.853 876.83 125.038L875.284 123.769ZM856.392 136.277C848.255 139.132 838.803 140.713 828.02 141L828.073 143C839.015 142.708 848.68 141.102 857.054 138.164L856.392 136.277ZM828.047 141H739.195V143H828.047V141ZM768.088 119.103H825.005V117.103H768.088V119.103ZM825.005 119.103C834.212 119.103 841.441 117.646 846.585 114.621L845.571 112.897C840.866 115.664 834.048 117.103 825.005 117.103V119.103ZM846.603 114.609C851.864 111.36 854.464 106.233 854.464 99.4207H852.464C852.464 105.643 850.14 110.074 845.552 112.908L846.603 114.609ZM854.464 99.4207C854.464 94.4362 852.944 90.6117 849.719 88.1931L848.519 89.7931C851.088 91.7194 852.464 94.8465 852.464 99.4207H854.464ZM849.719 88.1931C846.633 85.8787 842.601 84.5328 837.696 84.0869L837.515 86.0786C842.168 86.5017 845.812 87.7626 848.519 89.7931L849.719 88.1931ZM837.726 84.09C832.901 83.5052 827.719 83.2138 822.181 83.2138V85.2138C827.65 85.2138 832.751 85.5016 837.485 86.0755L837.726 84.09ZM822.181 83.2138H768.088V85.2138H822.181V83.2138ZM767.088 84.2138V118.103H769.088V84.2138H767.088ZM768.088 61.969H819.14V59.969H768.088V61.969ZM819.14 61.969C828.335 61.969 835.548 60.6595 840.68 57.9424L839.745 56.1748C835.028 58.6715 828.193 59.969 819.14 59.969V61.969ZM840.7 57.9316C845.995 54.9724 848.599 49.967 848.599 43.1552H846.599C846.599 49.3778 844.277 53.6414 839.725 56.1857L840.7 57.9316ZM848.599 43.1552C848.599 36.3436 845.994 31.3983 840.68 28.5852L839.745 30.3528C844.279 32.7534 846.599 36.9323 846.599 43.1552H848.599ZM840.7 28.596C835.576 25.7324 828.872 24.3414 820.661 24.3414V26.3414C828.67 26.3414 835.001 27.7021 839.725 30.3419L840.7 28.596ZM820.661 24.3414H768.088V26.3414H820.661V24.3414ZM767.088 25.3414V60.969H769.088V25.3414H767.088ZM937.596 1.44482H938.596V0.444824H937.596V1.44482ZM937.596 117.886H936.596V118.886H937.596V117.886ZM1031.01 117.886H1032.01V116.886H1031.01V117.886ZM1031.01 142V143H1032.01V142H1031.01ZM908.703 142H907.703V143H908.703V142ZM908.703 1.44482V0.444824H907.703V1.44482H908.703ZM936.596 1.44482V117.886H938.596V1.44482H936.596ZM937.596 118.886H1031.01V116.886H937.596V118.886ZM1030.01 117.886V142H1032.01V117.886H1030.01ZM1031.01 141H908.703V143H1031.01V141ZM909.703 142V1.44482H907.703V142H909.703ZM908.703 2.44482H937.596V0.444824H908.703V2.44482ZM1086.74 83.3448V82.3448H1085.74V83.3448H1086.74ZM1086.74 117.886H1085.74V118.886H1086.74V117.886ZM1195.14 117.886H1196.14V116.886H1195.14V117.886ZM1195.14 142V143H1196.14V142H1195.14ZM1057.84 142H1056.84V143H1057.84V142ZM1057.84 1.44482V0.444824H1056.84V1.44482H1057.84ZM1194.92 1.44482H1195.92V0.444824H1194.92V1.44482ZM1194.92 25.5586V26.5586H1195.92V25.5586H1194.92ZM1086.74 25.5586V24.5586H1085.74V25.5586H1086.74ZM1086.74 60.5345H1085.74V61.5345H1086.74V60.5345ZM1175.37 60.5345H1176.37V59.5345H1175.37V60.5345ZM1175.37 83.3448V84.3448H1176.37V83.3448H1175.37ZM1085.74 83.3448V117.886H1087.74V83.3448H1085.74ZM1086.74 118.886H1195.14V116.886H1086.74V118.886ZM1194.14 117.886V142H1196.14V117.886H1194.14ZM1195.14 141H1057.84V143H1195.14V141ZM1058.84 142V1.44482H1056.84V142H1058.84ZM1057.84 2.44482H1194.92V0.444824H1057.84V2.44482ZM1193.92 1.44482V25.5586H1195.92V1.44482H1193.92ZM1194.92 24.5586H1086.74V26.5586H1194.92V24.5586ZM1085.74 25.5586V60.5345H1087.74V25.5586H1085.74ZM1086.74 61.5345H1175.37V59.5345H1086.74V61.5345ZM1174.37 60.5345V83.3448H1176.37V60.5345H1174.37ZM1175.37 82.3448H1086.74V84.3448H1175.37V82.3448Z" fill="#171B20" mask="url(#path-1-outside-1_87_1169)"/>
</svg>
