<svg width="22" height="22" viewBox="0 0 22 22" fill="none" xmlns="http://www.w3.org/2000/svg">
<path d="M20.1667 15.345V4.28084C20.1667 3.18084 19.2683 2.36501 18.1775 2.45668H18.1225C16.1975 2.62168 13.2733 3.60251 11.6417 4.62918L11.4858 4.73001C11.22 4.89501 10.78 4.89501 10.5142 4.73001L10.285 4.59251C8.65333 3.57501 5.73833 2.60334 3.81333 2.44751C2.7225 2.35584 1.83333 3.18084 1.83333 4.27168V15.345C1.83333 16.225 2.54833 17.05 3.42833 17.16L3.69417 17.1967C5.68333 17.4625 8.75417 18.4708 10.5142 19.4333L10.5508 19.4517C10.7983 19.5892 11.1925 19.5892 11.4308 19.4517C13.1908 18.48 16.2708 17.4625 18.2692 17.1967L18.5717 17.16C19.4517 17.05 20.1667 16.225 20.1667 15.345Z" stroke="#E1E1E1" stroke-width="1.5" stroke-linecap="round" stroke-linejoin="round"/>
<path d="M11 5.0325V18.7825" stroke="#E1E1E1" stroke-width="1.5" stroke-linecap="round" stroke-linejoin="round"/>
<path d="M7.10417 7.7825H5.04167" stroke="#E1E1E1" stroke-width="1.5" stroke-linecap="round" stroke-linejoin="round"/>
<path d="M7.79167 10.5325H5.04167" stroke="#E1E1E1" stroke-width="1.5" stroke-linecap="round" stroke-linejoin="round"/>
</svg>
