<svg width="22" height="22" viewBox="0 0 22 22" fill="none" xmlns="http://www.w3.org/2000/svg">
<path d="M14.2817 11C14.2817 12.815 12.815 14.2817 11 14.2817C9.185 14.2817 7.71833 12.815 7.71833 11C7.71833 9.18499 9.185 7.71832 11 7.71832C12.815 7.71832 14.2817 9.18499 14.2817 11Z" stroke="#E1E1E1" stroke-width="1.5" stroke-linecap="round" stroke-linejoin="round"/>
<path d="M11 18.5808C14.2358 18.5808 17.2517 16.6742 19.3508 13.3742C20.1758 12.0817 20.1758 9.90917 19.3508 8.61667C17.2517 5.31667 14.2358 3.41 11 3.41C7.76417 3.41 4.74834 5.31667 2.64917 8.61667C1.82417 9.90917 1.82417 12.0817 2.64917 13.3742C4.74834 16.6742 7.76417 18.5808 11 18.5808Z" stroke="#E1E1E1" stroke-width="1.5" stroke-linecap="round" stroke-linejoin="round"/>
</svg>
